:FULLY-SPECIFIED
:FORCE-ALL-JOINTS-BE-3DOF
:DEGREES
781
root 1.65249 16.3546 18.6904 -14.2399 76.6145 339.816
lfemur -36.48 13.2746 -14.2751
ltibia 50.2606 0 0
lfoot -21.7621 20.071 0
ltoes 16.2526 0 0
rfemur -16.0985 -22.5808 21.3434
rtibia 51.9852 0 0
rfoot -17.7479 -32.0819 0
rtoes -25.0623 0 0
lowerback 1.28932 4.60846 -0.945957
upperback -0.839299 6.11933 -3.78228
thorax -1.25423 3.07147 -3.47492
lowerneck -5.34818 -6.60934 -0.644128
upperneck -2.37169 -8.70119 5.11414
head 0.425799 -4.27796 1.50371
lclavicle 5.82632e-15 1.79852e-16 0
lhumerus -55.537 -11.774 94.6498
lradius 70.4677 0 0
lwrist 13.0409 0 0
lhand -20.9265 -4.97229 0
lfingers 7.12502 0 0
lthumb 5.44353 24.9095 0
rclavicle 5.82632e-15 1.79852e-16 0
rhumerus -30.8984 47.5273 -111.774
rradius 79.7824 0 0
rwrist 5.86671 0 0
rhand -23.7042 -20.2177 0
rfingers 7.12502 0 0
rthumb 2.76268 -770.172 0
782
root 1.68097 16.3571 18.8193 -14.2451 75.905 340.047
lfemur -36.1975 13.1965 -14.3324
ltibia 50.0802 0 0
lfoot -21.5675 19.5044 0
ltoes 16.3428 0 0
rfemur -16.6261 -22.3435 21.1851
rtibia 51.9339 0 0
rfoot -17.4871 -31.6736 0
rtoes -24.9326 0 0
lowerback 1.43318 4.53447 -0.988322
upperback -0.77704 6.01412 -3.7508
thorax -1.27175 3.01888 -3.41271
lowerneck -5.36491 -6.56864 -0.607386
upperneck -2.2519 -8.65515 5.09385
head 0.46509 -4.25282 1.49104
lclavicle 5.6891e-15 3.59705e-16 0
lhumerus -55.2928 -11.9077 94.4808
lradius 70.3017 0 0
lwrist 13.1596 0 0
lhand -20.5708 -4.86253 0
lfingers 7.12502 0 0
lthumb 5.78506 24.9825 0
rclavicle 5.6891e-15 3.59705e-16 0
rhumerus -31.1324 46.9274 -111.043
rradius 79.4486 0 0
rwrist 5.80955 0 0
rhand -23.5016 -20.3338 0
rfingers 7.12502 0 0
rthumb 2.95809 -770.278 0
783
root 1.70944 16.3596 18.9482 -14.2504 75.1954 340.277
lfemur -35.915 13.1184 -14.3898
ltibia 49.8998 0 0
lfoot -21.373 18.9377 0
ltoes 16.433 0 0
rfemur -17.1536 -22.1062 21.0267
rtibia 51.8825 0 0
rfoot -17.2262 -31.2652 0
rtoes -24.8028 0 0
lowerback 1.57703 4.46047 -1.03069
upperback -0.71478 5.90891 -3.71931
thorax -1.28927 2.9663 -3.35051
lowerneck -5.38163 -6.52794 -0.570644
upperneck -2.13211 -8.60911 5.07355
head 0.504381 -4.22769 1.47836
lclavicle 5.55188e-15 5.39557e-16 0
lhumerus -55.0486 -12.0415 94.3119
lradius 70.1357 0 0
lwrist 13.2783 0 0
lhand -20.2152 -4.75278 0
lfingers 7.12502 0 0
lthumb 6.12658 25.0555 0
rclavicle 5.55188e-15 5.39557e-16 0
rhumerus -31.3663 46.3275 -110.311
rradius 79.1149 0 0
rwrist 5.75239 0 0
rhand -23.2989 -20.45 0
rfingers 7.12502 0 0
rthumb 3.15351 -770.383 0
784
root 1.73792 16.3621 19.0771 -14.2557 74.4859 340.508
lfemur -35.6326 13.0403 -14.4471
ltibia 49.7194 0 0
lfoot -21.1784 18.3711 0
ltoes 16.5233 0 0
rfemur -17.6811 -21.869 20.8684
rtibia 51.8312 0 0
rfoot -16.9653 -30.8569 0
rtoes -24.6731 0 0
lowerback 1.72089 4.38648 -1.07305
upperback -0.652521 5.8037 -3.68783
thorax -1.30679 2.91371 -3.2883
lowerneck -5.39835 -6.48724 -0.533902
upperneck -2.01231 -8.56307 5.05325
head 0.543672 -4.20255 1.46568
lclavicle 5.41466e-15 7.1941e-16 0
lhumerus -54.8045 -12.1753 94.1429
lradius 69.9697 0 0
lwrist 13.397 0 0
lhand -19.8595 -4.64302 0
lfingers 7.12502 0 0
lthumb 6.4681 25.1285 0
rclavicle 5.41466e-15 7.1941e-16 0
rhumerus -31.6002 45.7277 -109.579
rradius 78.7812 0 0
rwrist 5.69524 0 0
rhand -23.0963 -20.5662 0
rfingers 7.12502 0 0
rthumb 3.34893 -770.489 0
785
root 1.76639 16.3646 19.206 -14.261 73.7764 340.738
lfemur -35.3501 12.9621 -14.5044
ltibia 49.539 0 0
lfoot -20.9839 17.8044 0
ltoes 16.6135 0 0
rfemur -18.2086 -21.6317 20.71
rtibia 51.7799 0 0
rfoot -16.7044 -30.4485 0
rtoes -24.5433 0 0
lowerback 1.86474 4.31248 -1.11542
upperback -0.590261 5.6985 -3.65634
thorax -1.32431 2.86113 -3.2261
lowerneck -5.41507 -6.44654 -0.49716
upperneck -1.89252 -8.51703 5.03296
head 0.582963 -4.17742 1.453
lclavicle 5.27744e-15 8.99262e-16 0
lhumerus -54.5603 -12.309 93.974
lradius 69.8037 0 0
lwrist 13.5157 0 0
lhand -19.5039 -4.53327 0
lfingers 7.12502 0 0
lthumb 6.80963 25.2014 0
rclavicle 5.27744e-15 8.99262e-16 0
rhumerus -31.8341 45.1278 -108.848
rradius 78.4475 0 0
rwrist 5.63808 0 0
rhand -22.8936 -20.6823 0
rfingers 7.12502 0 0
rthumb 3.54435 -770.595 0
786
root 1.79486 16.3671 19.3349 -14.2662 73.0669 340.969
lfemur -35.0676 12.884 -14.5617
ltibia 49.3587 0 0
lfoot -20.7894 17.2378 0
ltoes 16.7037 0 0
rfemur -18.7362 -21.3944 20.5517
rtibia 51.7286 0 0
rfoot -16.4436 -30.0402 0
rtoes -24.4135 0 0
lowerback 2.00859 4.23849 -1.15778
upperback -0.528002 5.59329 -3.62486
thorax -1.34183 2.80855 -3.16389
lowerneck -5.4318 -6.40584 -0.460418
upperneck -1.77273 -8.47099 5.01266
head 0.622254 -4.15229 1.44033
lclavicle 5.14023e-15 1.07911e-15 0
lhumerus -54.3161 -12.4428 93.805
lradius 69.6377 0 0
lwrist 13.6345 0 0
lhand -19.1482 -4.42351 0
lfingers 7.12502 0 0
lthumb 7.15115 25.2744 0
rclavicle 5.14023e-15 1.07911e-15 0
rhumerus -32.0681 44.5279 -108.116
rradius 78.1137 0 0
rwrist 5.58092 0 0
rhand -22.691 -20.7985 0
rfingers 7.12502 0 0
rthumb 3.73976 -770.701 0
